<?xml version="1.0" standalone="no"?>
<svg xmlns="http://www.w3.org/2000/svg" viewBox="0 0 177 78" width="177" height="78"><g fill="#f29b18" color="#f29b18" transform="translate(66.383 0) scale(0.44) "><svg width="100.0" height="100.0" x="0.0" y="0.0" viewBox="0 0 100 100"><g><rect x="-192" width="185" height="99"></rect><rect y="-36" width="100" height="30"></rect><text transform="matrix(1 0 0 1 66 -19.5)" fill="currentColor" font-family="'Helvetica'" font-size="2.4"></text><text transform="matrix(1 0 0 1 7.166 -24.5)"><tspan x="0" y="0" fill="currentColor" font-family="'Helvetica-Bold'" font-size="6.1578"></tspan><tspan x="1.12" y="4.8" fill="currentColor" font-family="'Helvetica-Bold'" font-size="4"></tspan></text><text transform="matrix(1 0 0 1 -178.5 10.5)" fill="currentColor" font-family="'Helvetica-Bold'" font-size="6.1578"></text><line fill="currentColor" stroke="currentColor" stroke-miterlimit="10" x1="8" y1="-14.5" x2="18" y2="-14.5"></line><line fill="currentColor" stroke="currentColor" stroke-miterlimit="10" x1="-179" y1="16.5" x2="-162" y2="16.5"></line><g><g><g><rect x="-170.802" y="31.318" fill="currentColor" width="8.721" height="8.642"></rect><path fill="currentColor" d="M-164.455,42.312h4.747v-4.703h-4.747V42.312z M-159.266,42.749h-5.63V37.17h5.63V42.749      L-159.266,42.749z M-166.221,44.062h8.279v-8.203h-8.279V44.062L-166.221,44.062z M-157.5,44.5h-9.163v-9.079h9.163V44.5      L-157.5,44.5z"></path><polygon fill="currentColor" points="-166.149,44.133 -166.292,43.991 -158.013,35.787 -157.871,35.929     "></polygon></g></g></g><rect x="-179" y="58" fill="none" width="35" height="32.5"></rect><text transform="matrix(1 0 0 1 -179 60.1572)"><tspan x="0" y="0" fill="currentColor" font-family="'Helvetica-Bold'" font-size="3"></tspan><tspan x="0" y="5" fill="currentColor" font-family="'Helvetica'" font-size="2.4"></tspan><tspan x="0" y="10" fill="currentColor" font-family="'Helvetica'" font-size="2.4"></tspan><tspan x="0" y="14.5" fill="currentColor" font-family="'Helvetica'" font-size="2.4"></tspan><tspan x="0" y="17.5" fill="currentColor" font-family="'Helvetica'" font-size="2.4"></tspan><tspan x="0" y="22" fill="currentColor" font-family="'Helvetica-Bold'" font-size="2.4"></tspan><tspan x="0" y="25" fill="currentColor" font-family="'Helvetica-Bold'" font-size="2.4"></tspan></text><rect x="-136.5" y="58" fill="none" width="35" height="32.5"></rect><text transform="matrix(1 0 0 1 -136.5 60.1572)"><tspan x="0" y="0" fill="currentColor" font-family="'Helvetica-Bold'" font-size="3"></tspan><tspan x="0" y="5" fill="currentColor" font-family="'Helvetica'" font-size="2.4"></tspan><tspan x="0" y="8.5" fill="currentColor" font-family="'Helvetica'" font-size="2.4"></tspan><tspan x="0" y="13.5" fill="currentColor" font-family="'Helvetica'" font-size="2.4"></tspan><tspan x="0" y="16.5" fill="currentColor" font-family="'Helvetica'" font-size="2.4"></tspan></text><rect x="-94" y="58" fill="none" width="35" height="32.5"></rect><text transform="matrix(1 0 0 1 -94 60.1572)"><tspan x="0" y="0" fill="currentColor" font-family="'Helvetica-Bold'" font-size="3"></tspan><tspan x="0" y="5" fill="currentColor" font-family="'Helvetica'" font-size="2.4"></tspan><tspan x="0" y="8" fill="currentColor" font-family="'Helvetica'" font-size="2.4"></tspan></text><rect x="-50" y="58" fill="none" width="35" height="32.5"></rect><text transform="matrix(1 0 0 1 -50 60.1572)"><tspan x="0" y="0" fill="currentColor" font-family="'Helvetica-Bold'" font-size="3"></tspan><tspan x="0" y="5" fill="currentColor" font-family="'Helvetica'" font-size="2.4"></tspan><tspan x="0" y="8" fill="currentColor" font-family="'Helvetica'" font-size="2.4"></tspan></text><text transform="matrix(1.0074 0 0 1 -125.542 30.5933)" fill="currentColor" font-family="'Helvetica'" font-size="2.5731"></text><text transform="matrix(1.0074 0 0 1 -41 39)" fill="currentColor" font-family="'Helvetica-Bold'" font-size="5.1462"></text><rect x="-126.514" y="34.815" fill="currentColor" width="10.261" height="10.185"></rect><rect x="-126.477" y="31.766" fill="currentColor" width="0.522" height="2.337"></rect><rect x="-116.812" y="31.766" fill="currentColor" width="0.523" height="2.337"></rect><rect x="-127" y="32.337" fill="currentColor" width="11.233" height="0.572"></rect><g><rect x="-83.805" y="33.844" fill="currentColor" width="10.305" height="10.156"></rect><rect x="-76.809" y="28.707" fill="currentColor" width="3.308" height="3.261"></rect></g><rect x="-178.5" y="22.5" fill="currentColor" stroke="currentColor" stroke-miterlimit="10" width="30" height="30"></rect><rect x="-136.5" y="22.5" fill="currentColor" stroke="currentColor" stroke-miterlimit="10" width="30" height="30"></rect><rect x="-93.5" y="22.5" fill="currentColor" stroke="currentColor" stroke-miterlimit="10" width="30" height="30"></rect><rect x="-49.5" y="22.5" fill="currentColor" stroke="currentColor" stroke-miterlimit="10" width="30" height="30"></rect></g><g><path d="M100,0L100,0L100,0H0l0,0l0,0v100l0,0l0,0h100l0,0l0,0V0z M90,10v80H10V10H90z"></path><path d="M16,64v10h10v10h10V74h9v10h10V74h9v10h10V74h10V64H74v-9h10V45H74v-9h10V26H74V16H64v10h-9V16H45v10h-9V16H26v10H16v10h10   v9H16v10h10v9H16z M45,45h10v10H45V45z M45,64h-9v-9h9V64z M55,74H45V64h10V74z M55,64v-9h9v9H55z M74,74H64V64h10V74z M74,55H64   V45h10V55z M64,26h10v10H64V26z M64,36v9h-9v-9H64z M55,36H45V26h10V36z M45,36v9h-9v-9H45z M26,26h10v10H26V26z M26,45h10v10H26   V45z M36,64v10H26V64H36z"></path></g></svg></g><path fill="#01427c" fill-rule="nonzero" d="M9.93 2.04L9.93 2.04L9.70 5.48L9.62 5.51Q8.75 4.21 6.67 3.82L6.67 3.82Q6.01 3.69 5.41 3.69Q4.80 3.69 4.38 3.80Q3.95 3.90 3.64 4.10L3.64 4.10Q3 4.52 3 5.20L3 5.20Q3 6.09 3.56 6.54L3.56 6.54Q4.27 7.08 5.89 7.29Q7.52 7.51 8.51 7.89Q9.49 8.26 10.13 8.84L10.13 8.84Q11.32 9.91 11.32 11.88L11.32 11.88Q11.32 14.46 9.38 15.86L9.38 15.86Q7.71 17.05 5.18 17.05L5.18 17.05Q3.14 17.05 1.15 16.28L1.15 16.28Q0.49 16.02 0 15.68L0 15.68L0.13 11.77L0.18 11.73Q1.63 14.24 4.95 14.24L4.95 14.24Q7.30 14.24 8.06 13.10L8.06 13.10Q8.32 12.71 8.32 12.24Q8.32 11.77 8.17 11.46Q8.02 11.14 7.66 10.92L7.66 10.92Q6.98 10.48 5.38 10.32Q3.77 10.17 2.75 9.75Q1.73 9.33 1.13 8.71L1.13 8.71Q0.02 7.58 0.02 5.57L0.02 5.57Q0.02 3.48 1.49 2.19L1.49 2.19Q2.98 0.88 5.50 0.88Q8.03 0.88 9.93 2.04ZM23.51 12.76L23.78 15.62Q22.46 16.93 19.66 16.93L19.66 16.93Q16.95 16.93 15.22 15.28L15.22 15.28Q13.48 13.61 13.48 10.83L13.48 10.83Q13.48 8.00 15.20 6.19L15.20 6.19Q17.03 4.28 20.09 4.28L20.09 4.28Q22.25 4.28 23.72 5.23L23.72 5.23L23.25 8.23L23.17 8.21Q22.61 7.54 21.98 7.32L21.98 7.32Q20.98 6.97 19.97 6.97Q18.96 6.97 18.39 7.23Q17.81 7.49 17.40 7.95L17.40 7.95Q16.58 8.88 16.58 10.43L16.58 10.43Q16.58 13.17 18.48 14.02L18.48 14.02Q19.14 14.30 19.87 14.30Q20.60 14.30 21.15 14.17Q21.69 14.04 22.14 13.82L22.14 13.82Q23.09 13.35 23.43 12.73L23.43 12.73L23.51 12.76ZM29.40 8.61L29.40 15.45Q29.40 16.45 29.45 16.76L29.45 16.76L26.53 16.76L26.53 0L29.40 0L29.40 5.43Q30.91 4.28 32.52 4.28L32.52 4.28Q34.49 4.28 35.68 5.58L35.68 5.58Q36.86 6.88 36.86 9.02L36.86 9.02L36.86 13.69Q36.86 15.67 36.91 16.07Q36.97 16.46 37.07 16.58Q37.17 16.70 37.24 16.79L37.24 16.79L37.22 16.84Q36.27 16.76 35.84 16.76L35.84 16.76L35.00 16.76Q34.62 16.76 33.98 16.79L33.98 16.79L33.98 10.01Q33.98 8.39 33.27 7.62L33.27 7.62Q32.73 7.03 31.80 7.03L31.80 7.03Q30.43 7.03 29.40 8.61L29.40 8.61ZM48.29 16.03L48.29 16.03Q46.63 16.93 45.28 16.93Q43.93 16.93 42.97 16.68Q42.01 16.43 41.34 15.94L41.34 15.94Q39.98 14.94 39.98 13.05L39.98 13.05Q39.98 11.37 41.65 10.24L41.65 10.24Q43.45 9.02 46.55 9.02L46.55 9.02L47.02 9.04Q47.16 9.05 47.33 9.05Q47.51 9.06 47.65 9.08L47.65 9.08Q47.55 7.21 46.03 6.89L46.03 6.89Q45.53 6.79 44.96 6.79Q44.39 6.79 43.85 6.88Q43.30 6.98 42.79 7.15L42.79 7.15Q41.65 7.51 41.16 7.98L41.16 7.98L41.12 7.96L40.77 5.37Q42.84 4.28 45.30 4.28L45.30 4.28Q49.13 4.28 50.19 7.03L50.19 7.03Q50.53 7.91 50.53 9.01L50.53 9.01L50.53 13.25Q50.53 14.61 51.49 15.11L51.49 15.11L49.37 17.05Q48.70 16.70 48.29 16.03ZM47.66 13.64L47.66 11.19Q47.34 11.13 47.00 11.13L47.00 11.13L46.54 11.13Q43.95 11.13 43.24 12.28L43.24 12.28Q43.03 12.62 43.03 13.00Q43.03 13.37 43.17 13.66Q43.30 13.95 43.62 14.13L43.62 14.13Q44.23 14.48 45.43 14.48Q46.63 14.48 47.67 13.91L47.67 13.91Q47.66 13.78 47.66 13.64L47.66 13.64ZM62.27 16.03L62.27 16.03Q60.61 16.93 59.26 16.93Q57.91 16.93 56.95 16.68Q55.99 16.43 55.32 15.94L55.32 15.94Q53.96 14.94 53.96 13.05L53.96 13.05Q53.96 11.37 55.63 10.24L55.63 10.24Q57.43 9.02 60.53 9.02L60.53 9.02L61.00 9.04Q61.14 9.05 61.31 9.05Q61.49 9.06 61.63 9.08L61.63 9.08Q61.54 7.21 60.01 6.89L60.01 6.89Q59.51 6.79 58.94 6.79Q58.37 6.79 57.83 6.88Q57.28 6.98 56.77 7.15L56.77 7.15Q55.63 7.51 55.14 7.98L55.14 7.98L55.10 7.96L54.75 5.37Q56.82 4.28 59.29 4.28L59.29 4.28Q63.11 4.28 64.17 7.03L64.17 7.03Q64.51 7.91 64.51 9.01L64.51 9.01L64.51 13.25Q64.51 14.61 65.47 15.11L65.47 15.11L63.35 17.05Q62.68 16.70 62.27 16.03ZM61.64 13.64L61.64 11.19Q61.32 11.13 60.98 11.13L60.98 11.13L60.52 11.13Q57.93 11.13 57.22 12.28L57.22 12.28Q57.01 12.62 57.01 13.00Q57.01 13.37 57.15 13.66Q57.28 13.95 57.60 14.13L57.60 14.13Q58.21 14.48 59.41 14.48Q60.61 14.48 61.65 13.91L61.65 13.91Q61.64 13.78 61.64 13.64L61.64 13.64ZM71.21 13.96L71.21 15.21Q71.21 16.22 71.30 16.76L71.30 16.76L68.34 16.76L68.34 0L71.21 0L71.21 10.27L76.57 4.51L80.05 4.51L75.43 9.38L78.07 12.97Q78.93 14.33 79.36 14.96L79.36 14.96L80.13 16.05Q80.48 16.51 80.72 16.76L80.72 16.76L78.87 16.76Q77.84 16.76 77.10 16.93L77.10 16.93L73.44 11.59L71.21 13.96ZM85.61 6.88L85.61 16.83Q85.04 16.76 83.44 16.76L83.44 16.76L82.50 16.76L82.50 1.13Q83.25 1.17 84.15 1.17Q85.05 1.17 85.43 1.08L85.43 1.08L89.37 7.77L93.15 1.08Q93.53 1.17 94.58 1.17Q95.64 1.17 96.39 1.13L96.39 1.13L96.39 16.76L95.45 16.76Q93.84 16.76 93.28 16.83L93.28 16.83L93.28 6.33L89.45 13.18L85.61 6.88ZM108.27 16.03L108.27 16.03Q106.61 16.93 105.26 16.93Q103.91 16.93 102.95 16.68Q101.99 16.43 101.32 15.94L101.32 15.94Q99.96 14.94 99.96 13.05L99.96 13.05Q99.96 11.37 101.63 10.24L101.63 10.24Q103.43 9.02 106.52 9.02L106.52 9.02L106.99 9.04Q107.13 9.05 107.31 9.05Q107.48 9.06 107.63 9.08L107.63 9.08Q107.53 7.21 106.01 6.89L106.01 6.89Q105.50 6.79 104.94 6.79Q104.37 6.79 103.82 6.88Q103.28 6.98 102.76 7.15L102.76 7.15Q101.63 7.51 101.13 7.98L101.13 7.98L101.10 7.96L100.75 5.37Q102.82 4.28 105.28 4.28L105.28 4.28Q109.10 4.28 110.17 7.03L110.17 7.03Q110.51 7.91 110.51 9.01L110.51 9.01L110.51 13.25Q110.51 14.61 111.47 15.11L111.47 15.11L109.35 17.05Q108.68 16.70 108.27 16.03ZM107.64 13.64L107.64 11.19Q107.32 11.13 106.98 11.13L106.98 11.13L106.51 11.13Q103.92 11.13 103.22 12.28L103.22 12.28Q103.01 12.62 103.01 13.00Q103.01 13.37 103.14 13.66Q103.28 13.95 103.59 14.13L103.59 14.13Q104.20 14.48 105.40 14.48Q106.61 14.48 107.65 13.91L107.65 13.91Q107.64 13.78 107.64 13.64L107.64 13.64ZM117.25 8.57L117.25 15.26Q117.25 16.29 117.34 16.76L117.34 16.76L114.40 16.76L114.40 4.51L117.25 4.51L117.25 5.55Q118.79 4.28 120.55 4.28L120.55 4.28Q122.47 4.28 123.62 5.58Q124.77 6.89 124.77 9.02L124.77 9.02L124.77 13.69Q124.77 15.67 124.83 16.07Q124.89 16.46 124.99 16.58Q125.09 16.70 125.16 16.79L125.16 16.79L125.13 16.84Q124.18 16.76 123.75 16.76L123.75 16.76L122.93 16.76Q122.55 16.76 121.92 16.79L121.92 16.79L121.92 10.41Q121.92 6.97 119.84 6.97L119.84 6.97Q118.29 6.97 117.25 8.57L117.25 8.57ZM136.28 16.03L136.28 16.03Q134.61 16.93 133.27 16.93Q131.92 16.93 130.96 16.68Q130.00 16.43 129.33 15.94L129.33 15.94Q127.97 14.94 127.97 13.05L127.97 13.05Q127.97 11.37 129.63 10.24L129.63 10.24Q131.44 9.02 134.53 9.02L134.53 9.02L135 9.04Q135.14 9.05 135.32 9.05Q135.49 9.06 135.63 9.08L135.63 9.08Q135.54 7.21 134.02 6.89L134.02 6.89Q133.51 6.79 132.94 6.79Q132.38 6.79 131.83 6.88Q131.29 6.98 130.77 7.15L130.77 7.15Q129.63 7.51 129.14 7.98L129.14 7.98L129.11 7.96L128.75 5.37Q130.83 4.28 133.29 4.28L133.29 4.28Q137.11 4.28 138.18 7.03L138.18 7.03Q138.52 7.91 138.52 9.01L138.52 9.01L138.52 13.25Q138.52 14.61 139.48 15.11L139.48 15.11L137.36 17.05Q136.69 16.70 136.28 16.03ZM135.64 13.64L135.64 11.19Q135.33 11.13 134.99 11.13L134.99 11.13L134.52 11.13Q131.93 11.13 131.23 12.28L131.23 12.28Q131.02 12.62 131.02 13.00Q131.02 13.37 131.15 13.66Q131.29 13.95 131.60 14.13L131.60 14.13Q132.21 14.48 133.41 14.48Q134.61 14.48 135.66 13.91L135.66 13.91Q135.64 13.78 135.64 13.64L135.64 13.64ZM145.32 13.50L145.32 13.50Q144.89 14.07 144.89 14.41Q144.89 14.74 145.00 14.92Q145.10 15.11 145.45 15.27L145.45 15.27Q146.23 15.63 148.00 15.91Q149.77 16.18 150.77 16.59Q151.77 17.00 152.39 17.60L152.39 17.60Q153.55 18.74 153.55 20.82Q153.55 22.91 152.09 24.03Q150.62 25.15 147.74 25.15L147.74 25.15Q144.83 25.15 143.05 23.88L143.05 23.88Q141.27 22.62 141.22 20.52L141.22 20.52Q141.15 18.08 143.13 16.99L143.13 16.99Q142.59 16.55 142.41 15.94Q142.23 15.34 142.23 14.57L142.23 14.57Q142.23 13.27 143.37 12.36L143.37 12.36Q142.04 11.11 142.04 9.25L142.04 9.25Q142.04 7.16 143.54 5.75L143.54 5.75Q145.13 4.28 147.64 4.28L147.64 4.28Q148.97 4.28 150.13 4.77L150.13 4.77Q151.65 4.13 152.37 3.64Q153.08 3.15 153.28 2.93L153.28 2.93L153.35 2.94Q153.46 3.22 153.60 3.74L153.60 3.74L153.81 4.58Q154.09 5.63 154.15 6.01L154.15 6.01Q153.63 6.57 152.33 6.81L152.33 6.81Q152.84 7.78 152.84 8.87Q152.84 9.96 152.46 10.85Q152.09 11.73 151.39 12.40L151.39 12.40Q149.86 13.84 147.48 13.84L147.48 13.84Q146.32 13.84 145.32 13.50ZM145.02 8.23L145.02 8.23Q144.86 8.65 144.86 9.08Q144.86 9.52 145.04 9.91Q145.22 10.31 145.57 10.63L145.57 10.63Q146.36 11.33 147.62 11.33L147.62 11.33Q148.58 11.33 149.29 10.69L149.29 10.69Q150.02 9.98 150.02 8.99Q150.02 8.00 149.36 7.39Q148.69 6.79 147.52 6.79L147.52 6.79Q145.58 6.79 145.02 8.23ZM147.89 22.66L147.89 22.66Q150.77 22.66 150.77 20.65L150.77 20.65Q150.77 19.69 149.84 19.10L149.84 19.10Q148.78 18.43 146.21 18.06L146.21 18.06L145.61 17.95Q144.83 18.36 144.47 19.01Q144.11 19.65 144.11 20.23Q144.12 20.81 144.39 21.23Q144.66 21.66 145.14 21.97L145.14 21.97Q146.20 22.66 147.89 22.66ZM155.57 10.73L155.57 10.73Q155.57 9.36 156.04 8.19Q156.50 7.02 157.36 6.14L157.36 6.14Q159.19 4.28 162.14 4.28L162.14 4.28Q164.64 4.28 166.15 5.93L166.15 5.93Q167.64 7.52 167.64 9.94L167.64 9.94Q167.64 10.86 167.50 11.20L167.50 11.20Q166.32 11.53 162.73 11.53L162.73 11.53L158.60 11.53Q158.91 12.79 160.02 13.48Q161.13 14.18 162.91 14.18L162.91 14.18Q164.78 14.18 166.11 13.51L166.11 13.51Q166.46 13.34 166.64 13.18L166.64 13.18Q166.62 13.68 166.58 14.19L166.58 14.19L166.45 16.02Q165.56 16.63 163.57 16.86L163.57 16.86Q162.98 16.93 162.45 16.93L162.45 16.93Q159.47 16.93 157.52 15.20L157.52 15.20Q155.57 13.45 155.57 10.73ZM164.52 9.26L164.52 9.26Q164.04 6.74 161.78 6.74L161.78 6.74Q160.00 6.74 159.07 8.27L159.07 8.27Q158.79 8.74 158.64 9.30L158.64 9.30Q158.92 9.32 159.33 9.33L159.33 9.33L160.20 9.33Q160.63 9.34 161.03 9.34L161.03 9.34L161.70 9.34Q162.29 9.34 162.87 9.33L162.87 9.33L163.83 9.29Q164.21 9.28 164.52 9.26ZM172.95 8.23L172.95 15.45Q172.95 16.45 172.99 16.76L172.99 16.76L170.07 16.76L170.07 4.51L172.95 4.51L172.95 5.41Q173.94 4.28 175.04 4.28Q176.13 4.28 176.77 4.55L176.77 4.55L176.55 7.70L176.51 7.73Q176.10 7.01 174.81 7.01L174.81 7.01Q174.32 7.01 173.81 7.34Q173.30 7.68 172.95 8.23L172.95 8.23Z" transform="translate(0, 52)"></path></svg>